<?xml version="1.0" encoding="UTF-8"?>
<svg id="Camada_1" xmlns="http://www.w3.org/2000/svg" version="1.1" viewBox="0 0 200 200">
  <!-- Generator: Adobe Illustrator 29.5.1, SVG Export Plug-In . SVG Version: 2.1.0 Build 141)  -->
  <defs>
    <style>
      .st0 {
        fill: #b84823;
      }

      .st0, .st1, .st2, .st3 {
        fill-rule: evenodd;
      }

      .st1 {
        fill: #f5aa7e;
      }

      .st2 {
        fill: #d4d4d4;
      }

      .st3 {
        fill: #e75f2a;
      }

      .st4 {
        fill: #14213f;
      }
    </style>
  </defs>
  <rect class="st4" x="0" width="200" height="200"/>
  <g>
    <path class="st2" d="M116.91,100.2h36.03l-11.22,18.24h-27.4c1.7-5.17,2.62-10.69,2.62-16.43,0-.6-.01-1.21-.03-1.81h0ZM64.37,49.44h119.81l-11.22,18.24h-68.77c-9.64-11.17-23.9-18.24-39.81-18.24h0ZM109.37,74.82h59.19l-11.22,18.24h-41.16c-1.13-6.58-3.48-12.74-6.81-18.24h0ZM109.37,74.82"/>
    <path class="st0" d="M64.37,53.46c1.37,0,2.73.06,4.07.17-.22-.02-.44-.04-.66-.05-8.62,8.88-14.74,18.16-18.52,27.81-2.01-.01-4.04.03-6.08.12,2.51-8.3,2.64-16.03-.16-23.11h0c6.45-3.16,13.7-4.94,21.37-4.94h0ZM69.01,53.68c.21.02.43.04.64.07-.21-.02-.43-.05-.64-.07h0ZM70.24,53.81c.21.02.41.05.61.08-.2-.03-.41-.05-.61-.08h0ZM71.49,53.98c.18.03.37.06.55.09-.18-.03-.37-.06-.55-.09h0ZM72.7,54.17c.18.03.36.06.54.1-.18-.03-.36-.06-.54-.1h0ZM73.24,54.27c6.41,1.18,12.39,3.63,17.65,7.07h0c-5.09,1.26-9.47,2.95-13.16,5.01-7.2,4.03-11.79,9.48-13.96,16.07-3.27-.44-6.55-.74-9.85-.9,3.97-9.45,10.35-18.54,19.34-27.25h0ZM91.16,61.52c.23.15.46.31.69.47-.23-.16-.46-.31-.69-.47h0ZM92.15,62.19c.22.15.43.3.64.46-.21-.15-.43-.31-.64-.46h0ZM93.12,62.88c.2.15.4.3.61.45-.2-.15-.4-.3-.61-.45h0ZM94.05,63.58c.2.15.39.3.59.46-.19-.16-.39-.31-.59-.46h0ZM94.98,64.32c.18.15.36.29.54.44-.18-.15-.36-.3-.54-.44h0ZM95.52,64.77c9.8,8.21,16.32,20.21,17.28,33.75-15.75-7.64-30.14-12.9-44.66-15.43,1.93-5.24,5.78-9.63,11.71-12.94,4.18-2.34,9.39-4.16,15.67-5.39h0ZM112.85,99.31c0,.12.01.25.02.37,0-.12-.01-.25-.02-.37h0ZM112.9,103.41c-.46,16.18-8.84,30.39-21.4,38.87h.01c-9.99-11.92-17.17-23.2-21.18-33.33-3.2-8.07-4.36-15.37-3.31-21.62,14.82,2.52,29.56,8.03,45.88,16.09h0ZM89.66,143.46c-.08.05-.16.1-.25.15.08-.05.16-.1.25-.15h0ZM88.74,144.01c-.14.08-.28.16-.43.24.14-.08.28-.16.43-.24h0ZM87.77,144.56c-6.94,3.82-14.91,6-23.4,6-.98,0-1.95-.03-2.91-.09h.02c-9.6-17.95-13.94-35.03-12.2-51.12.5-4.59,1.49-9.11,3-13.55,3.51.12,6.98.41,10.44.86-1.17,7.04.09,15.09,3.56,23.87,4.13,10.42,11.41,21.92,21.48,34.02h0ZM61.05,150.45c-.29-.02-.58-.04-.86-.07.29.02.57.05.86.07h0ZM59.84,150.35c-.3-.03-.59-.06-.89-.09.29.03.59.06.89.09h0ZM58.65,150.22c-.32-.04-.64-.08-.96-.12.32.04.64.08.96.12h0ZM57.47,150.07c-.33-.05-.66-.1-.99-.15.33.05.66.1.99.15h0ZM56.26,149.88c-17.1-2.88-31.17-14.7-37.23-30.49.11.3.23.59.35.89,10.05-11.92,17.73-23.17,21.97-33.61.1-.24.19-.48.29-.72,2.04-.12,4.07-.19,6.08-.21-1.37,4.31-2.28,8.7-2.76,13.15-1.75,16.19,2.26,33.22,11.31,50.99h0ZM18.92,119.12c-.09-.25-.19-.5-.28-.75.09.25.18.5.28.75h0ZM18.48,117.89c-.07-.2-.13-.39-.2-.59.07.2.13.39.2.59h0ZM18.08,116.69c-.05-.15-.1-.31-.15-.47.05.16.1.31.15.47h0ZM17.72,115.49c-1.24-4.28-1.9-8.8-1.9-13.48,0-4.21.54-8.29,1.54-12.18,6.73-1.69,13.16-2.84,19.4-3.48-3.91,9.05-10.51,18.81-19.04,29.14h0ZM17.96,87.71c.03-.1.06-.2.09-.3-.03.1-.06.2-.09.3h0ZM18.3,86.66c.05-.16.11-.32.16-.48-.06.16-.11.32-.16.48h0ZM18.66,85.61c.07-.2.15-.41.22-.61-.08.2-.15.4-.22.61h0ZM18.89,84.99c3.83-10.23,11.01-18.83,20.21-24.45,2.36,6.47,1.98,13.59-.6,21.27-6.32.54-12.83,1.59-19.62,3.17h0ZM40.09,59.96c.09-.05.17-.1.26-.15-.09.05-.17.1-.26.15h0ZM41.05,59.42c.14-.07.27-.15.41-.22-.14.07-.27.15-.41.22h0ZM42,58.91c.19-.1.39-.2.58-.3-.19.1-.39.2-.58.3h0ZM42,58.91"/>
    <path class="st3" d="M64.37,53.46c10.04,0,19.37,3.05,27.11,8.27-.2-.13-.4-.27-.6-.4-5.09,1.27-9.47,2.96-13.16,5.02-7.2,4.03-11.79,9.48-13.96,16.07-3.27-.44-6.55-.74-9.85-.9,3.97-9.45,10.35-18.54,19.34-27.25-1.79-.33-3.61-.56-5.47-.69-8.62,8.88-14.74,18.16-18.52,27.81-2.01-.01-4.04.03-6.08.12,2.51-8.3,2.64-16.03-.16-23.11,6.44-3.16,13.69-4.94,21.36-4.94h0ZM91.63,61.83c.1.07.21.14.31.21-.1-.07-.21-.14-.31-.21h0ZM95.52,64.77c1.02.85,2,1.74,2.94,2.68,1.73,4.82,2.67,10.02,2.67,15.44,0,3.39-.37,6.69-1.07,9.87-10.95-4.57-21.4-7.83-31.92-9.66,1.93-5.24,5.78-9.63,11.71-12.94,4.18-2.34,9.39-4.16,15.67-5.39h0ZM98.91,96.99c-3.6,11.14-11.36,20.41-21.45,25.99-2.97-4.87-5.36-9.56-7.13-14.03-3.2-8.07-4.36-15.37-3.31-21.62,10.48,1.78,20.91,5.06,31.89,9.67h0ZM73.54,124.9c-5.57,2.42-11.72,3.76-18.18,3.76-1.03,0-2.05-.03-3.06-.1-2.97-10.06-4.03-19.8-3.02-29.2.5-4.59,1.49-9.11,3-13.55,3.51.12,6.98.41,10.44.86-1.17,7.04.09,15.09,3.56,23.87,1.82,4.59,4.25,9.39,7.26,14.36h0ZM47.61,128.01c-9.4-1.6-17.82-6.07-24.33-12.47,8.14-10.17,14.4-19.83,18.07-28.87.1-.24.19-.48.29-.72,2.04-.12,4.07-.19,6.08-.21-1.37,4.31-2.28,8.7-2.76,13.15-1.02,9.43-.08,19.14,2.66,29.11h0ZM20.29,112.31c-1.58-1.88-3.02-3.9-4.28-6.02-.12-1.41-.19-2.84-.19-4.28,0-4.21.54-8.29,1.54-12.18,6.73-1.69,13.16-2.84,19.4-3.48-3.5,8.12-9.18,16.81-16.46,25.96h0ZM17.96,87.71c.03-.1.06-.2.09-.3-.03.1-.06.2-.09.3h0ZM18.3,86.66c.05-.16.11-.32.16-.48-.06.16-.11.32-.16.48h0ZM18.66,85.61c.07-.2.15-.41.22-.61-.08.2-.15.4-.22.61h0ZM18.89,84.99c3.83-10.23,11.01-18.83,20.21-24.45,2.36,6.47,1.98,13.59-.6,21.27-6.32.54-12.83,1.59-19.62,3.17h0ZM40.09,59.96c.08-.05.16-.09.24-.14l-.24.14ZM41.05,59.42c.13-.07.27-.15.41-.22-.14.07-.27.15-.41.22h0ZM42,58.91c.19-.1.38-.19.57-.29-.19.1-.38.19-.57.29h0ZM42,58.91"/>
    <path class="st1" d="M87.46,144.73c-5.42-6.65-9.98-13.12-13.61-19.31,3.77,6.15,8.43,12.56,13.91,19.15.5-.28,1-.56,1.49-.86-.59.35-1.19.69-1.79,1.02h0ZM62.48,88.43c-2.99-.35-6-.58-9.04-.69-1.51,4.44-2.5,8.96-3,13.55-1.68,15.51,2.3,31.95,11.19,49.2-1.2-.07-2.39-.18-3.56-.33,1.13.15,2.27.25,3.41.32-9.6-17.95-13.94-35.03-12.2-51.12.5-4.59,1.49-9.11,3-13.55,3.51.12,6.98.41,10.44.86-.1.58-.18,1.17-.24,1.76h0ZM58.03,150.15c-.11-.01-.22-.03-.32-.04.11.01.22.03.32.04h0ZM47.13,87.7c-1.44.03-2.88.09-4.33.18-.09.24-.19.48-.29.72-4.26,10.51-12.03,21.85-22.18,33.86-.47-1.02-.91-2.06-1.32-3.11.12.31.24.62.37.93,10.05-11.92,17.73-23.17,21.97-33.61.1-.24.19-.48.29-.72,2.04-.12,4.07-.19,6.08-.21-.21.65-.4,1.3-.59,1.96h0ZM35.78,88.52c-6.09.73-12.38,1.95-18.97,3.68.16-.8.35-1.59.55-2.37,6.73-1.69,13.16-2.84,19.4-3.48-.31.72-.64,1.44-.98,2.17h0ZM40.67,59.63c.85-.48,1.72-.93,2.6-1.36,3.44,7.07,3.79,14.83,1.63,23.17-.57.02-1.14.04-1.72.07,2.51-8.3,2.64-16.03-.16-23.11-.8.39-1.58.8-2.35,1.23h0ZM70.58,53.85h0c1.79.23,3.54.55,5.26.97-9.15,8.57-15.75,17.51-19.98,26.8-.65-.04-1.3-.08-1.96-.11,3.97-9.45,10.35-18.54,19.34-27.25-.88-.16-1.77-.3-2.66-.42h0ZM93.24,62.98h0c1.49,1.11,2.92,2.3,4.27,3.56-6.66,1.23-12.14,3.1-16.51,5.54-5.31,2.97-8.96,6.81-11.05,11.34-.61-.12-1.21-.23-1.82-.33,1.93-5.24,5.78-9.63,11.71-12.94,4.18-2.34,9.39-4.16,15.67-5.39-.74-.62-1.5-1.22-2.27-1.79h0ZM112.92,102.32c0,.81-.03,1.62-.08,2.43-15.83-7.73-30.21-13.03-44.66-15.49-1.05,6.25.11,13.55,3.31,21.62,1.56,3.94,3.6,8.05,6.1,12.31-3.03-4.95-5.46-9.71-7.26-14.24-3.2-8.07-4.36-15.37-3.31-21.62,14.82,2.52,29.56,8.03,45.88,16.09,0-.36.02-.73.02-1.09h0ZM112.92,102.32"/>
    <path class="st1" d="M64.37,53.46c9.85,0,19.01,2.93,26.66,7.97l-.15-.1c-.4.1-.79.2-1.17.3-5.85-2.74-12.31-4.4-19.13-4.69.86-.9,1.75-1.79,2.66-2.67-1.79-.33-3.61-.56-5.47-.69-1.11,1.14-2.18,2.3-3.21,3.45-7.26.54-14.09,2.61-20.17,5.9-.33-1.54-.79-3.05-1.38-4.53h0c6.45-3.16,13.7-4.94,21.37-4.94h0ZM91.11,61.48c.1.07.2.13.3.2-.1-.07-.2-.13-.3-.2h0ZM95.52,64.77c.13.11.25.21.38.32-.16-.1-.31-.2-.47-.3l.09-.02ZM40.34,65.37c-7.01,4.69-12.78,11.08-16.71,18.59-1.57.31-3.15.66-4.75,1.03,3.83-10.23,11.01-18.83,20.21-24.45.57,1.57.98,3.18,1.24,4.82h0ZM21.39,88.88c-2.25,5.71-3.48,11.93-3.48,18.44,0,2.48.18,4.92.53,7.3-.24.29-.48.58-.72.87.47,1.64,1.03,3.23,1.66,4.79l.16-.19c.15.57.31,1.13.47,1.68-2.69-6.04-4.2-12.73-4.2-19.77,0-4.21.54-8.29,1.54-12.18,1.35-.34,2.7-.66,4.03-.95h0ZM17.96,87.71c.03-.1.06-.2.09-.3-.03.1-.06.2-.09.3h0ZM18.3,86.66c.05-.16.11-.32.16-.48-.06.16-.11.32-.16.48h0ZM18.66,85.61c.07-.2.15-.41.22-.61-.08.2-.15.4-.22.61h0ZM40.09,59.96c.08-.05.16-.09.24-.14l-.24.14ZM41.05,59.42c.14-.07.27-.15.41-.22-.14.07-.27.15-.41.22h0ZM42,58.91c.19-.1.39-.2.58-.3-.19.1-.39.2-.58.3h0ZM42,58.91"/>
  </g>
</svg>